<mxfile host="65bd71144e">
    <diagram name="Page-1" id="lztr07gDLiP5ILuYCeim">
        <mxGraphModel dx="960" dy="668" grid="1" gridSize="10" guides="1" tooltips="1" connect="1" arrows="1" fold="1" page="1" pageScale="1" pageWidth="827" pageHeight="1169" math="1" shadow="0">
            <root>
                <mxCell id="0"/>
                <mxCell id="1" parent="0"/>
                <mxCell id="20" value="" style="rounded=0;whiteSpace=wrap;html=1;labelBackgroundColor=none;" vertex="1" parent="1">
                    <mxGeometry x="174" y="330" width="480" height="160" as="geometry"/>
                </mxCell>
                <mxCell id="Wu-VGYVmWwzD95YKU7cb-1" value="0" style="rounded=0;whiteSpace=wrap;html=1;verticalAlign=bottom;align=left;fillColor=#DAE8FC;fontColor=#6D8FBF;strokeColor=#6D8FBF;" parent="1" vertex="1">
                    <mxGeometry x="174" y="160" width="40" height="40" as="geometry"/>
                </mxCell>
                <mxCell id="Wu-VGYVmWwzD95YKU7cb-2" value="1" style="rounded=0;whiteSpace=wrap;html=1;align=left;verticalAlign=bottom;fillColor=#DAE8FC;fontColor=#6D8FBF;strokeColor=#6D8FBF;" parent="1" vertex="1">
                    <mxGeometry x="214" y="160" width="40" height="40" as="geometry"/>
                </mxCell>
                <mxCell id="Wu-VGYVmWwzD95YKU7cb-3" value="2" style="rounded=0;whiteSpace=wrap;html=1;verticalAlign=bottom;align=left;fillColor=#DAE8FC;fontColor=#6D8FBF;strokeColor=#6D8FBF;" parent="1" vertex="1">
                    <mxGeometry x="254" y="160" width="40" height="40" as="geometry"/>
                </mxCell>
                <mxCell id="Wu-VGYVmWwzD95YKU7cb-4" value="3" style="rounded=0;whiteSpace=wrap;html=1;verticalAlign=bottom;align=left;fillColor=#DAE8FC;fontColor=#6D8FBF;strokeColor=#6D8FBF;" parent="1" vertex="1">
                    <mxGeometry x="294" y="160" width="40" height="40" as="geometry"/>
                </mxCell>
                <mxCell id="Wu-VGYVmWwzD95YKU7cb-5" value="4" style="rounded=0;whiteSpace=wrap;html=1;verticalAlign=bottom;align=left;fillColor=#DAE8FC;fontColor=#6D8FBF;strokeColor=#6D8FBF;" parent="1" vertex="1">
                    <mxGeometry x="334" y="160" width="40" height="40" as="geometry"/>
                </mxCell>
                <mxCell id="Wu-VGYVmWwzD95YKU7cb-6" value="5" style="rounded=0;whiteSpace=wrap;html=1;verticalAlign=bottom;align=left;fillColor=#DAE8FC;fontColor=#6D8FBF;strokeColor=#6D8FBF;" parent="1" vertex="1">
                    <mxGeometry x="374" y="160" width="40" height="40" as="geometry"/>
                </mxCell>
                <mxCell id="Wu-VGYVmWwzD95YKU7cb-7" value="6" style="rounded=0;whiteSpace=wrap;html=1;verticalAlign=bottom;align=left;fillColor=#DAE8FC;fontColor=#6D8FBF;strokeColor=#6D8FBF;" parent="1" vertex="1">
                    <mxGeometry x="414" y="160" width="40" height="40" as="geometry"/>
                </mxCell>
                <mxCell id="Wu-VGYVmWwzD95YKU7cb-8" value="7" style="rounded=0;whiteSpace=wrap;html=1;verticalAlign=bottom;align=left;fillColor=#DAE8FC;fontColor=#6D8FBF;strokeColor=#6D8FBF;" parent="1" vertex="1">
                    <mxGeometry x="454" y="160" width="40" height="40" as="geometry"/>
                </mxCell>
                <mxCell id="Wu-VGYVmWwzD95YKU7cb-9" value="8" style="rounded=0;whiteSpace=wrap;html=1;verticalAlign=bottom;align=left;fillColor=#DAE8FC;fontColor=#6D8FBF;strokeColor=#6D8FBF;" parent="1" vertex="1">
                    <mxGeometry x="494" y="160" width="40" height="40" as="geometry"/>
                </mxCell>
                <mxCell id="Wu-VGYVmWwzD95YKU7cb-10" value="9" style="rounded=0;whiteSpace=wrap;html=1;verticalAlign=bottom;align=left;fillColor=#DAE8FC;fontColor=#6D8FBF;strokeColor=#6D8FBF;" parent="1" vertex="1">
                    <mxGeometry x="534" y="160" width="40" height="40" as="geometry"/>
                </mxCell>
                <mxCell id="Wu-VGYVmWwzD95YKU7cb-11" value="10" style="rounded=0;whiteSpace=wrap;html=1;verticalAlign=bottom;align=left;fillColor=#DAE8FC;fontColor=#6D8FBF;strokeColor=#6D8FBF;" parent="1" vertex="1">
                    <mxGeometry x="574" y="160" width="40" height="40" as="geometry"/>
                </mxCell>
                <mxCell id="Wu-VGYVmWwzD95YKU7cb-12" value="11" style="rounded=0;whiteSpace=wrap;html=1;verticalAlign=bottom;align=left;fillColor=#DAE8FC;fontColor=#6D8FBF;strokeColor=#6D8FBF;" parent="1" vertex="1">
                    <mxGeometry x="614" y="160" width="40" height="40" as="geometry"/>
                </mxCell>
                <mxCell id="Wu-VGYVmWwzD95YKU7cb-18" value="" style="endArrow=none;dashed=1;html=1;rounded=0;strokeColor=#000000;" parent="1" edge="1">
                    <mxGeometry width="50" height="50" relative="1" as="geometry">
                        <mxPoint x="254" y="240" as="sourcePoint"/>
                        <mxPoint x="254" y="120" as="targetPoint"/>
                    </mxGeometry>
                </mxCell>
                <mxCell id="Wu-VGYVmWwzD95YKU7cb-19" value="" style="endArrow=none;dashed=1;html=1;rounded=0;strokeColor=#000000;" parent="1" edge="1">
                    <mxGeometry width="50" height="50" relative="1" as="geometry">
                        <mxPoint x="334" y="240" as="sourcePoint"/>
                        <mxPoint x="334" y="120" as="targetPoint"/>
                    </mxGeometry>
                </mxCell>
                <mxCell id="Wu-VGYVmWwzD95YKU7cb-20" value="" style="endArrow=none;dashed=1;html=1;rounded=0;strokeColor=#000000;" parent="1" edge="1">
                    <mxGeometry width="50" height="50" relative="1" as="geometry">
                        <mxPoint x="414" y="240" as="sourcePoint"/>
                        <mxPoint x="414" y="120" as="targetPoint"/>
                    </mxGeometry>
                </mxCell>
                <mxCell id="Wu-VGYVmWwzD95YKU7cb-21" value="" style="endArrow=none;dashed=1;html=1;rounded=0;strokeColor=#000000;" parent="1" edge="1">
                    <mxGeometry width="50" height="50" relative="1" as="geometry">
                        <mxPoint x="494" y="240" as="sourcePoint"/>
                        <mxPoint x="494" y="120" as="targetPoint"/>
                    </mxGeometry>
                </mxCell>
                <mxCell id="Wu-VGYVmWwzD95YKU7cb-22" value="" style="endArrow=none;dashed=1;html=1;rounded=0;strokeColor=#000000;" parent="1" edge="1">
                    <mxGeometry width="50" height="50" relative="1" as="geometry">
                        <mxPoint x="574" y="240" as="sourcePoint"/>
                        <mxPoint x="574" y="120" as="targetPoint"/>
                    </mxGeometry>
                </mxCell>
                <mxCell id="Wu-VGYVmWwzD95YKU7cb-23" value="" style="endArrow=none;dashed=1;html=1;rounded=0;strokeColor=#000000;" parent="1" edge="1">
                    <mxGeometry width="50" height="50" relative="1" as="geometry">
                        <mxPoint x="654" y="240" as="sourcePoint"/>
                        <mxPoint x="654" y="120" as="targetPoint"/>
                    </mxGeometry>
                </mxCell>
                <mxCell id="A5hnAUH-TdoVmnZUKG4d-1" value="$$t_0$$" style="text;html=1;strokeColor=none;fillColor=none;align=center;verticalAlign=middle;whiteSpace=wrap;rounded=0;fontColor=#000000;" parent="1" vertex="1">
                    <mxGeometry x="194" y="130" width="40" height="20" as="geometry"/>
                </mxCell>
                <mxCell id="A5hnAUH-TdoVmnZUKG4d-30" value="" style="shape=curlyBracket;whiteSpace=wrap;html=1;rounded=1;flipH=1;labelPosition=right;verticalLabelPosition=middle;align=left;verticalAlign=middle;rotation=90;fontColor=#000000;strokeColor=#000000;" parent="1" vertex="1">
                    <mxGeometry x="204" y="170" width="20" height="80" as="geometry"/>
                </mxCell>
                <mxCell id="A5hnAUH-TdoVmnZUKG4d-31" value="Number of variables" style="text;html=1;strokeColor=none;fillColor=none;align=center;verticalAlign=middle;whiteSpace=wrap;rounded=0;fontColor=#000000;" parent="1" vertex="1">
                    <mxGeometry x="174" y="220" width="80" height="40" as="geometry"/>
                </mxCell>
                <mxCell id="A5hnAUH-TdoVmnZUKG4d-32" value="$$t_3$$" style="text;html=1;strokeColor=none;fillColor=none;align=center;verticalAlign=middle;whiteSpace=wrap;rounded=0;fontColor=#000000;" parent="1" vertex="1">
                    <mxGeometry x="434" y="130" width="40" height="20" as="geometry"/>
                </mxCell>
                <mxCell id="A5hnAUH-TdoVmnZUKG4d-33" value="$$t_2$$" style="text;html=1;strokeColor=none;fillColor=none;align=center;verticalAlign=middle;whiteSpace=wrap;rounded=0;fontColor=#000000;" parent="1" vertex="1">
                    <mxGeometry x="354" y="130" width="40" height="20" as="geometry"/>
                </mxCell>
                <mxCell id="A5hnAUH-TdoVmnZUKG4d-34" value="$$t_1$$" style="text;html=1;strokeColor=none;fillColor=none;align=center;verticalAlign=middle;whiteSpace=wrap;rounded=0;fontColor=#000000;" parent="1" vertex="1">
                    <mxGeometry x="274" y="130" width="40" height="20" as="geometry"/>
                </mxCell>
                <mxCell id="A5hnAUH-TdoVmnZUKG4d-35" value="$$t_4$$" style="text;html=1;strokeColor=none;fillColor=none;align=center;verticalAlign=middle;whiteSpace=wrap;rounded=0;fontColor=#000000;" parent="1" vertex="1">
                    <mxGeometry x="514" y="130" width="40" height="20" as="geometry"/>
                </mxCell>
                <mxCell id="A5hnAUH-TdoVmnZUKG4d-39" value="$$t_5$$" style="text;html=1;strokeColor=none;fillColor=none;align=center;verticalAlign=middle;whiteSpace=wrap;rounded=0;fontColor=#000000;" parent="1" vertex="1">
                    <mxGeometry x="594" y="130" width="40" height="20" as="geometry"/>
                </mxCell>
                <mxCell id="A5hnAUH-TdoVmnZUKG4d-40" value="&lt;h1 style=&quot;margin-top: 0px;&quot;&gt;Data vector&lt;/h1&gt;" style="text;html=1;whiteSpace=wrap;overflow=hidden;rounded=0;align=center;" parent="1" vertex="1">
                    <mxGeometry x="324" y="70" width="180" height="50" as="geometry"/>
                </mxCell>
                <mxCell id="A5hnAUH-TdoVmnZUKG4d-41" value="&lt;h1 style=&quot;margin-top: 0px;&quot;&gt;Indexes map&lt;/h1&gt;" style="text;html=1;whiteSpace=wrap;overflow=hidden;rounded=0;align=center;" parent="1" vertex="1">
                    <mxGeometry x="324" y="280" width="180" height="50" as="geometry"/>
                </mxCell>
                <mxCell id="2" value="$$t_0$$" style="whiteSpace=wrap;html=1;aspect=fixed;strokeColor=#6D8FBF;fillColor=#DAE8FC;fontColor=#6D8FBF;" vertex="1" parent="1">
                    <mxGeometry x="194" y="350" width="40" height="40" as="geometry"/>
                </mxCell>
                <mxCell id="3" value="0" style="whiteSpace=wrap;html=1;aspect=fixed;strokeColor=#6D8FBF;fillColor=#DAE8FC;fontColor=#6D8FBF;" vertex="1" parent="1">
                    <mxGeometry x="194" y="430" width="40" height="40" as="geometry"/>
                </mxCell>
                <mxCell id="4" value="" style="endArrow=classic;html=1;exitX=0.5;exitY=1;exitDx=0;exitDy=0;entryX=0.5;entryY=0;entryDx=0;entryDy=0;strokeColor=#6D8FBF;" edge="1" parent="1" source="2" target="3">
                    <mxGeometry width="50" height="50" relative="1" as="geometry">
                        <mxPoint x="504" y="420" as="sourcePoint"/>
                        <mxPoint x="554" y="370" as="targetPoint"/>
                    </mxGeometry>
                </mxCell>
                <mxCell id="5" value="$$t_1$$" style="whiteSpace=wrap;html=1;aspect=fixed;strokeColor=#6D8FBF;fillColor=#DAE8FC;fontColor=#6D8FBF;" vertex="1" parent="1">
                    <mxGeometry x="274" y="350" width="40" height="40" as="geometry"/>
                </mxCell>
                <mxCell id="6" value="2" style="whiteSpace=wrap;html=1;aspect=fixed;strokeColor=#6D8FBF;fillColor=#DAE8FC;fontColor=#6D8FBF;" vertex="1" parent="1">
                    <mxGeometry x="274" y="430" width="40" height="40" as="geometry"/>
                </mxCell>
                <mxCell id="7" value="" style="endArrow=classic;html=1;exitX=0.5;exitY=1;exitDx=0;exitDy=0;entryX=0.5;entryY=0;entryDx=0;entryDy=0;strokeColor=#6D8FBF;" edge="1" parent="1">
                    <mxGeometry width="50" height="50" relative="1" as="geometry">
                        <mxPoint x="294" y="390" as="sourcePoint"/>
                        <mxPoint x="294" y="430" as="targetPoint"/>
                    </mxGeometry>
                </mxCell>
                <mxCell id="8" value="$$t_2$$" style="whiteSpace=wrap;html=1;aspect=fixed;strokeColor=#6D8FBF;fillColor=#DAE8FC;fontColor=#6D8FBF;" vertex="1" parent="1">
                    <mxGeometry x="354" y="350" width="40" height="40" as="geometry"/>
                </mxCell>
                <mxCell id="9" value="4" style="whiteSpace=wrap;html=1;aspect=fixed;strokeColor=#6D8FBF;fillColor=#DAE8FC;fontColor=#6D8FBF;" vertex="1" parent="1">
                    <mxGeometry x="354" y="430" width="40" height="40" as="geometry"/>
                </mxCell>
                <mxCell id="10" value="" style="endArrow=classic;html=1;exitX=0.5;exitY=1;exitDx=0;exitDy=0;entryX=0.5;entryY=0;entryDx=0;entryDy=0;strokeColor=#6D8FBF;" edge="1" parent="1">
                    <mxGeometry width="50" height="50" relative="1" as="geometry">
                        <mxPoint x="374" y="390" as="sourcePoint"/>
                        <mxPoint x="374" y="430" as="targetPoint"/>
                    </mxGeometry>
                </mxCell>
                <mxCell id="11" value="$$t_3$$" style="whiteSpace=wrap;html=1;aspect=fixed;strokeColor=#6D8FBF;fillColor=#DAE8FC;fontColor=#6D8FBF;" vertex="1" parent="1">
                    <mxGeometry x="434" y="350" width="40" height="40" as="geometry"/>
                </mxCell>
                <mxCell id="12" value="6" style="whiteSpace=wrap;html=1;aspect=fixed;strokeColor=#6D8FBF;fillColor=#DAE8FC;fontColor=#6D8FBF;" vertex="1" parent="1">
                    <mxGeometry x="434" y="430" width="40" height="40" as="geometry"/>
                </mxCell>
                <mxCell id="13" value="" style="endArrow=classic;html=1;exitX=0.5;exitY=1;exitDx=0;exitDy=0;entryX=0.5;entryY=0;entryDx=0;entryDy=0;strokeColor=#6D8FBF;" edge="1" parent="1">
                    <mxGeometry width="50" height="50" relative="1" as="geometry">
                        <mxPoint x="454" y="390" as="sourcePoint"/>
                        <mxPoint x="454" y="430" as="targetPoint"/>
                    </mxGeometry>
                </mxCell>
                <mxCell id="14" value="$$t_4$$" style="whiteSpace=wrap;html=1;aspect=fixed;strokeColor=#6D8FBF;fillColor=#DAE8FC;fontColor=#6D8FBF;" vertex="1" parent="1">
                    <mxGeometry x="514" y="350" width="40" height="40" as="geometry"/>
                </mxCell>
                <mxCell id="15" value="8" style="whiteSpace=wrap;html=1;aspect=fixed;strokeColor=#6D8FBF;fillColor=#DAE8FC;fontColor=#6D8FBF;" vertex="1" parent="1">
                    <mxGeometry x="514" y="430" width="40" height="40" as="geometry"/>
                </mxCell>
                <mxCell id="16" value="" style="endArrow=classic;html=1;exitX=0.5;exitY=1;exitDx=0;exitDy=0;entryX=0.5;entryY=0;entryDx=0;entryDy=0;strokeColor=#6D8FBF;" edge="1" parent="1">
                    <mxGeometry width="50" height="50" relative="1" as="geometry">
                        <mxPoint x="534" y="390" as="sourcePoint"/>
                        <mxPoint x="534" y="430" as="targetPoint"/>
                    </mxGeometry>
                </mxCell>
                <mxCell id="17" value="$$t_5$$" style="whiteSpace=wrap;html=1;aspect=fixed;strokeColor=#6D8FBF;fillColor=#DAE8FC;fontColor=#6D8FBF;" vertex="1" parent="1">
                    <mxGeometry x="594" y="350" width="40" height="40" as="geometry"/>
                </mxCell>
                <mxCell id="18" value="10" style="whiteSpace=wrap;html=1;aspect=fixed;strokeColor=#6D8FBF;fillColor=#DAE8FC;fontColor=#6D8FBF;" vertex="1" parent="1">
                    <mxGeometry x="594" y="430" width="40" height="40" as="geometry"/>
                </mxCell>
                <mxCell id="19" value="" style="endArrow=classic;html=1;exitX=0.5;exitY=1;exitDx=0;exitDy=0;entryX=0.5;entryY=0;entryDx=0;entryDy=0;strokeColor=#6D8FBF;" edge="1" parent="1">
                    <mxGeometry width="50" height="50" relative="1" as="geometry">
                        <mxPoint x="614" y="390" as="sourcePoint"/>
                        <mxPoint x="614" y="430" as="targetPoint"/>
                    </mxGeometry>
                </mxCell>
            </root>
        </mxGraphModel>
    </diagram>
</mxfile>
